<svg width="24" height="25" viewBox="0 0 24 25" fill="none" xmlns="http://www.w3.org/2000/svg">
<path fill-rule="evenodd" clip-rule="evenodd" d="M24 4.68503C23.1182 5.08662 22.1687 5.35819 21.1727 5.47954C22.1898 4.85549 22.9702 3.86596 23.3379 2.68719C22.3856 3.26502 21.3333 3.68538 20.2092 3.91074C19.3133 2.92988 18.0328 2.31738 16.6156 2.31738C13.8982 2.31738 11.6936 4.57812 11.6936 7.36613C11.6936 7.76194 11.7359 8.1462 11.8204 8.51601C7.72812 8.30511 4.10072 6.29716 1.67072 3.23901C1.2467 3.9873 1.00439 4.85548 1.00439 5.78001C1.00439 7.53082 1.87357 9.0765 3.19493 9.98225C2.38916 9.95769 1.62845 9.728 0.963547 9.35242V9.41453C0.963547 11.8616 2.66103 13.9028 4.91495 14.365C4.5022 14.4835 4.06691 14.5427 3.61754 14.5427C3.30058 14.5427 2.99067 14.5124 2.69061 14.4532C3.31748 16.4582 5.1347 17.9187 7.29001 17.9577C5.6052 19.3127 3.48089 20.1202 1.17485 20.1202C0.777597 20.1202 0.384575 20.0971 0 20.0509C2.17926 21.481 4.76844 22.3174 7.54781 22.3174C16.6057 22.3174 21.5573 14.6251 21.5573 7.95263C21.5573 7.73305 21.5531 7.51348 21.5446 7.29824C22.5068 6.58607 23.3421 5.69767 24 4.68503Z" fill="white"/>
</svg>
