<svg width="25" height="25" viewBox="0 0 25 25" fill="none" xmlns="http://www.w3.org/2000/svg">
<path d="M18.1588 5.3539C17.1697 4.20406 16.6516 2.71846 16.6928 1.20598L12.9971 1.1167C12.9971 1.1167 12.9971 1.27438 12.9971 1.48702V16.3073C13.0487 20.9959 5.64084 20.8821 6.22692 15.6996C6.58524 13.6389 8.79948 12.3708 10.767 13.0877V9.31678C6.48348 8.57086 2.42412 11.9803 2.46684 16.3238C2.84124 25.7438 16.3523 25.745 16.7272 16.3238C16.6328 15.9866 16.6856 9.70918 16.6722 9.17974C18.3527 10.2254 20.308 10.7481 22.2882 10.6812V6.7867C20.4575 6.7867 19.0604 6.29998 18.1588 5.3539Z" fill="white"/>
</svg>
