<svg width="25" height="25" viewBox="0 0 25 25" fill="none" xmlns="http://www.w3.org/2000/svg">
<g clip-path="url(#clip0_2_2664)">
<path d="M13.938 6.04381C13.938 6.28943 13.938 7.09001 13.938 8.22739H17.8485L17.4245 11.7133H13.938C13.938 17.0893 13.938 24.2934 13.938 24.2934H9.31022C9.31022 24.2934 9.31022 17.1847 9.31022 11.7133H6.89883V8.22739H9.31022C9.31022 6.84495 9.31022 5.86193 9.31022 5.58823C9.31022 4.28417 9.21197 3.66542 9.76608 2.65489C10.3205 1.6444 11.8842 0.308746 14.5889 0.340902C17.2942 0.37423 18.4345 0.63448 18.4345 0.63448L17.8485 4.34965C17.8485 4.34965 16.121 3.89351 15.2731 4.05607C14.4263 4.21868 13.938 4.74031 13.938 6.04381Z" fill="white"/>
</g>
<defs>
<clipPath id="clip0_2_2664">
<rect width="24" height="24" fill="white" transform="translate(0.666656 0.316895)"/>
</clipPath>
</defs>
</svg>
